<mxfile host="Electron" modified="2023-11-24T16:45:04.509Z" agent="Mozilla/5.0 (Macintosh; Intel Mac OS X 10_15_7) AppleWebKit/537.36 (KHTML, like Gecko) draw.io/22.1.2 Chrome/114.0.5735.289 Electron/25.9.4 Safari/537.36" etag="6URfyYaB3WyRpnr5yBSY" version="22.1.2" type="device">
  <diagram name="Сторінка-1" id="br70Y-66KtROK1bt8-Pm">
    <mxGraphModel dx="1113" dy="815" grid="1" gridSize="10" guides="1" tooltips="1" connect="1" arrows="1" fold="1" page="1" pageScale="1" pageWidth="827" pageHeight="1169" math="0" shadow="0">
      <root>
        <mxCell id="0" />
        <mxCell id="1" parent="0" />
        <mxCell id="vGN-x8NFdSL33ozMNncW-3" value="" style="edgeStyle=orthogonalEdgeStyle;rounded=0;orthogonalLoop=1;jettySize=auto;html=1;" edge="1" parent="1" source="vGN-x8NFdSL33ozMNncW-1" target="vGN-x8NFdSL33ozMNncW-2">
          <mxGeometry relative="1" as="geometry" />
        </mxCell>
        <mxCell id="vGN-x8NFdSL33ozMNncW-1" value="Start" style="ellipse;whiteSpace=wrap;html=1;" vertex="1" parent="1">
          <mxGeometry x="260" y="190" width="120" height="80" as="geometry" />
        </mxCell>
        <mxCell id="vGN-x8NFdSL33ozMNncW-5" value="" style="edgeStyle=orthogonalEdgeStyle;rounded=0;orthogonalLoop=1;jettySize=auto;html=1;" edge="1" parent="1" source="vGN-x8NFdSL33ozMNncW-2" target="vGN-x8NFdSL33ozMNncW-4">
          <mxGeometry relative="1" as="geometry" />
        </mxCell>
        <mxCell id="vGN-x8NFdSL33ozMNncW-2" value="Input n" style="shape=parallelogram;perimeter=parallelogramPerimeter;whiteSpace=wrap;html=1;fixedSize=1;" vertex="1" parent="1">
          <mxGeometry x="235" y="320" width="170" height="60" as="geometry" />
        </mxCell>
        <mxCell id="vGN-x8NFdSL33ozMNncW-7" value="" style="edgeStyle=orthogonalEdgeStyle;rounded=0;orthogonalLoop=1;jettySize=auto;html=1;" edge="1" parent="1" source="vGN-x8NFdSL33ozMNncW-4" target="vGN-x8NFdSL33ozMNncW-6">
          <mxGeometry relative="1" as="geometry" />
        </mxCell>
        <mxCell id="vGN-x8NFdSL33ozMNncW-13" value="" style="edgeStyle=orthogonalEdgeStyle;rounded=0;orthogonalLoop=1;jettySize=auto;html=1;" edge="1" parent="1" source="vGN-x8NFdSL33ozMNncW-4" target="vGN-x8NFdSL33ozMNncW-11">
          <mxGeometry relative="1" as="geometry" />
        </mxCell>
        <mxCell id="vGN-x8NFdSL33ozMNncW-4" value="for i = 1,&lt;br&gt;i &amp;lt;= n" style="rhombus;whiteSpace=wrap;html=1;" vertex="1" parent="1">
          <mxGeometry x="240" y="420" width="160" height="90" as="geometry" />
        </mxCell>
        <mxCell id="vGN-x8NFdSL33ozMNncW-9" style="edgeStyle=orthogonalEdgeStyle;rounded=0;orthogonalLoop=1;jettySize=auto;html=1;" edge="1" parent="1" source="vGN-x8NFdSL33ozMNncW-6">
          <mxGeometry relative="1" as="geometry">
            <mxPoint x="320" y="400" as="targetPoint" />
            <Array as="points">
              <mxPoint x="540" y="400" />
            </Array>
          </mxGeometry>
        </mxCell>
        <mxCell id="vGN-x8NFdSL33ozMNncW-6" value="factorial *= i" style="rounded=0;whiteSpace=wrap;html=1;" vertex="1" parent="1">
          <mxGeometry x="480" y="435" width="120" height="60" as="geometry" />
        </mxCell>
        <mxCell id="vGN-x8NFdSL33ozMNncW-8" value="1 &amp;lt; i &amp;lt; number" style="text;html=1;strokeColor=none;fillColor=none;align=center;verticalAlign=middle;whiteSpace=wrap;rounded=0;" vertex="1" parent="1">
          <mxGeometry x="380" y="420" width="90" height="30" as="geometry" />
        </mxCell>
        <mxCell id="vGN-x8NFdSL33ozMNncW-10" value="i++" style="text;html=1;strokeColor=none;fillColor=none;align=center;verticalAlign=middle;whiteSpace=wrap;rounded=0;" vertex="1" parent="1">
          <mxGeometry x="450" y="360" width="60" height="30" as="geometry" />
        </mxCell>
        <mxCell id="vGN-x8NFdSL33ozMNncW-14" value="" style="edgeStyle=orthogonalEdgeStyle;rounded=0;orthogonalLoop=1;jettySize=auto;html=1;" edge="1" parent="1" source="vGN-x8NFdSL33ozMNncW-11" target="vGN-x8NFdSL33ozMNncW-12">
          <mxGeometry relative="1" as="geometry" />
        </mxCell>
        <mxCell id="vGN-x8NFdSL33ozMNncW-11" value="Output factorial" style="shape=parallelogram;perimeter=parallelogramPerimeter;whiteSpace=wrap;html=1;fixedSize=1;" vertex="1" parent="1">
          <mxGeometry x="260" y="540" width="120" height="60" as="geometry" />
        </mxCell>
        <mxCell id="vGN-x8NFdSL33ozMNncW-12" value="End" style="ellipse;whiteSpace=wrap;html=1;" vertex="1" parent="1">
          <mxGeometry x="260" y="630" width="120" height="80" as="geometry" />
        </mxCell>
      </root>
    </mxGraphModel>
  </diagram>
</mxfile>
